{"title":"Charli XCX Ft. Rita Ora - Doing It [Music Video] 1080p [Sbyky]","uid":11746229,"size":125199223,"categoryP":"video","categoryS":"music_videos","magnet":"?xt=urn:btih:40f62e05f2d43659cea60fe8934abd27e4f5ae86&amp;dn=Charli+XCX+Ft.+Rita+Ora+-+Doing+It+%5BMusic+Video%5D+1080p+%5BSbyky%5D&amp;tr=udp%3A%2F%2Ftracker.openbittorrent.com%3A80&amp;tr=udp%3A%2F%2Fopen.demonii.com%3A1337&amp;tr=udp%3A%2F%2Ftracker.coppersurfer.tk%3A6969&amp;tr=udp%3A%2F%2Fexodus.desync.com%3A6969","seeders":10,"leechers":1,"uploader":"Sbyky","files":1,"time":1426026705,"description":"General\nComplete name                            : Charli XCX Ft. Rita Ora - Doing It [Music Video] 1080p [Sbyky].mp4\nFormat                                   : MPEG-4\nFormat profile                           : Base Media\nCodec ID                                 : isom\nFile size                                : 119 MiB\nDuration                                 : 4mn 6s\nOverall bit rate mode                    : Variable\nOverall bit rate                         : 4 055 Kbps\nEncoded date                             : UTC 2015-01-28 14:34:47\nTagged date                              : UTC 2015-01-28 14:34:47\n\nVideo\nID                                       : 1\nFormat                                   : AVC\nFormat/Info                              : Advanced Video Codec\nFormat profile                           : &lt;a class=&quot;__cf_email__&quot; href=&quot;/cdn-cgi/l/email-protection&quot; data-cfemail=&quot;4a02232d220a067e647a&quot;&gt;[email&amp;#160;protected]&lt;/a&gt;&lt;script cf-hash='f9e31' type=&quot;text/javascript&quot;&gt;\n/* &lt;![CDATA[ */!function(){try{var t=&quot;currentScript&quot;in document?document.currentScript:function(){for(var t=document.getElementsByTagName(&quot;script&quot;),e=t.length;e--;)if(t[e].getAttribute(&quot;cf-hash&quot;))return t[e]}();if(t&amp;&amp;t.previousSibling){var e,r,n,i,c=t.previousSibling,a=c.getAttribute(&quot;data-cfemail&quot;);if(a){for(e=&quot;&quot;,r=parseInt(a.substr(0,2),16),n=2;a.length-n;n+=2)i=parseInt(a.substr(n,2),16)^r,e+=String.fromCharCode(i);e=document.createTextNode(e),c.parentNode.replaceChild(e,c)}}}catch(u){}}();/* ]]&gt; */&lt;/script&gt;\nFormat settings, CABAC                   : Yes\nFormat settings, ReFrames                : 3 frames\nCodec ID                                 : avc1\nCodec ID/Info                            : Advanced Video Coding\nDuration                                 : 4mn 6s\nBit rate                                 : 3 926 Kbps\nWidth                                    : 1 920 pixels\nHeight                                   : 1 080 pixels\nDisplay aspect ratio                     : 16:9\nFrame rate mode                          : Variable\nFrame rate                               : 23.976 fps\nMinimum frame rate                       : 23.974 fps\nMaximum frame rate                       : 23.981 fps\nColor space                              : YUV\nChroma subsampling                       : 4:2:0\nBit depth                                : 8 bits\nScan type                                : Progressive\nBits/(Pixel*Frame)                       : 0.079\nStream size                              : 116 MiB (97%)\nEncoded date                             : UTC 2015-01-28 14:34:47\nTagged date                              : UTC 2015-01-28 14:34:47\n\nAudio\nID                                       : 2\nFormat                                   : AAC\nFormat/Info                              : Advanced Audio Codec\nFormat profile                           : LC\nCodec ID                                 : 40\nDuration                                 : 4mn 6s\nBit rate mode                            : Variable\nBit rate                                 : 126 Kbps\nChannel(s)                               : 2 channels\nChannel positions                        : Front: L R\nSampling rate                            : 44.1 KHz\nCompression mode                         : Lossy\nStream size                              : 3.70 MiB (3%)\nEncoded date                             : UTC 2015-01-28 14:26:00\nTagged date                              : UTC 2015-01-28 14:26:00\n\nShared By Sbyky","torrent":{"xt":"urn:btih:40f62e05f2d43659cea60fe8934abd27e4f5ae86","amp;dn":"Charli+XCX+Ft.+Rita+Ora+-+Doing+It+%5BMusic+Video%5D+1080p+%5BSbyky%5D","amp;tr":["udp%3A%2F%2Ftracker.openbittorrent.com%3A80","udp%3A%2F%2Fopen.demonii.com%3A1337","udp%3A%2F%2Ftracker.coppersurfer.tk%3A6969","udp%3A%2F%2Fexodus.desync.com%3A6969"],"infoHash":"40f62e05f2d43659cea60fe8934abd27e4f5ae86","infoHashBuffer":{"type":"Buffer","data":[64,246,46,5,242,212,54,89,206,166,15,232,147,74,189,39,228,245,174,134]},"announce":[],"urlList":[]}}